# xmcd
#
# Track frame offsets:
#	150
#	10770
#	19365
#	34979
#	49156
#	60583
#	71247
#	80968
#	97355
#	110334
#	121180
#	134020
#
# Disc length: 2021 seconds
#
# Revision: 0
# Processed by: cddbd v1.5.2PL0 Copyright (c) Steve Scherf et al.
# Submitted via: EZCDAudioConverter 2.1.5.1
#
DISCID=b307e30c
DTITLE=NORMA JEAN - AGED TO PERFECTION
DYEAR=2013
DGENRE=Country
TTITLE0=I CRIED ALL THE WAY TO THE BANK 
TTITLE1=COLUMBUS STOCKADE BLUES
TTITLE2=COUPLE MORE YEARS (DUETT WITH DANIEL O'DONNEL)
TTITLE3=MY BABY'S GONE
TTITLE4=CHATTANOOGA SHOE SHINE BOY
TTITLE5=SATIN SHEETS
TTITLE6=HEAVEN HELP THE WORKING GIRL
TTITLE7=I CAN'T STOP LOVING YOU
TTITLE8=THE GAME OF TRIANGLE (DUETT WITH JUSTIN TREVINO and AMBER DIGBY)
TTITLE9=WABASH CANNONBALL
TTITLE10=I NEVER PROMISED YOU THE ROSE GARDEN
TTITLE11=TODAY I STARTED LOVING YOU AGAIN
EXTD=
EXTT0=
EXTT1=
EXTT2=
EXTT3=
EXTT4=
EXTT5=
EXTT6=
EXTT7=
EXTT8=
EXTT9=
EXTT10=
EXTT11=
PLAYORDER=
